HIERARCHY
ROOT Pelvis
{
	OFFSET 0.000000 0.000000 0.000000
	CHANNELS 6 Xposition Yposition Zposition Xrotation Yrotation Zrotation
	JOINT LeftUpLeg_virtual
	{
		OFFSET 0.000000 0.000000 0.000000
		CHANNELS 3 Xrotation Yrotation Zrotation
		JOINT LeftUpLeg
		{
			OFFSET 18.735201 -5.666702 -4.541200
			CHANNELS 3 Xrotation Yrotation Zrotation
			JOINT LeftLeg
			{
				OFFSET -0.021200 -31.938179 0.493100
				CHANNELS 3 Xrotation Yrotation Zrotation
				JOINT LeftFoot
				{
					OFFSET 0.021200 -31.938179 -4.336299
					CHANNELS 3 Xrotation Yrotation Zrotation
					JOINT LeftToeBase
					{
						OFFSET 0.943001 -26.722000 15.023500
						CHANNELS 3 Xrotation Yrotation Zrotation
						End Site
						{
							OFFSET 0 0 0
						}
					}
				}
			}
		}
	}
	JOINT RightUpLeg_virtual
	{
		OFFSET 0.000000 0.000000 0.000000
		CHANNELS 3 Xrotation Yrotation Zrotation
		JOINT RightUpLeg
		{
			OFFSET -18.735201 -5.666702 -4.541200
			CHANNELS 3 Xrotation Yrotation Zrotation
			JOINT RightLeg
			{
				OFFSET 0.018946 -31.938133 0.493100
				CHANNELS 3 Xrotation Yrotation Zrotation
				JOINT RightFoot
				{
					OFFSET -0.018946 -31.938126 -4.336299
					CHANNELS 3 Xrotation Yrotation Zrotation
					JOINT RightToeBase
					{
						OFFSET -0.943001 -26.722004 15.023500
						CHANNELS 3 Xrotation Yrotation Zrotation
						End Site
						{
							OFFSET 0 0 0
						}
					}
				}
			}
		}
	}
	JOINT Hips_virtual
	{
		OFFSET 0.000000 0.000000 0.000000
		CHANNELS 3 Xrotation Yrotation Zrotation
		JOINT Hips
		{
			OFFSET -0.000000 -0.000000 -0.000000
			CHANNELS 3 Xrotation Yrotation Zrotation
			JOINT Spine
			{
				OFFSET 0.000000 10.199997 -0.299500
				CHANNELS 3 Xrotation Yrotation Zrotation
				JOINT Spine1
				{
					OFFSET 0.000000 11.900002 -1.516600
					CHANNELS 3 Xrotation Yrotation Zrotation
					JOINT Spine2
					{
						OFFSET 0.000000 13.600006 -2.842500
						CHANNELS 3 Xrotation Yrotation Zrotation
						JOINT Neck_virtual
						{
							OFFSET 0.000000 0.000000 0.000000
							CHANNELS 3 Xrotation Yrotation Zrotation
							JOINT Neck
							{
								OFFSET 0.000000 9.624100 -2.890100
								CHANNELS 3 Xrotation Yrotation Zrotation
								JOINT Head
								{
									OFFSET 0.000000 14.068802 -1.351900
									CHANNELS 3 Xrotation Yrotation Zrotation
									End Site
									{
										OFFSET 0 0 0
									}
								}
							}
						}
						JOINT LeftShoulder_virtual
						{
							OFFSET 0.000000 0.000000 0.000000
							CHANNELS 3 Xrotation Yrotation Zrotation
							JOINT LeftShoulder
							{
								OFFSET 15.263000 10.923401 -0.547700
								CHANNELS 3 Xrotation Yrotation Zrotation
								JOINT LeftArm
								{
									OFFSET 25.438599 -2.830597 -13.032500
									CHANNELS 3 Xrotation Yrotation Zrotation
									JOINT LeftForeArm
									{
										OFFSET 29.960503 0.000000 0.000000
										CHANNELS 3 Xrotation Yrotation Zrotation
										JOINT LeftHand
										{
											OFFSET 27.849251 0.000000 0.000000
											CHANNELS 3 Xrotation Yrotation Zrotation
											End Site
											{
												OFFSET 0 0 0
											}
										}
									}
								}
							}
						}
						JOINT RightShoulder_virtual
						{
							OFFSET 0.000000 0.000000 0.000000
							CHANNELS 3 Xrotation Yrotation Zrotation
							JOINT RightShoulder
							{
								OFFSET -15.263000 10.923401 -0.547700
								CHANNELS 3 Xrotation Yrotation Zrotation
								JOINT RightArm
								{
									OFFSET -25.438599 -2.830597 -13.032500
									CHANNELS 3 Xrotation Yrotation Zrotation
									JOINT RightForeArm
									{
										OFFSET -29.960503 0.000000 0.000000
										CHANNELS 3 Xrotation Yrotation Zrotation
										JOINT RightHand
										{
											OFFSET -27.849251 0.000000 0.000000
											CHANNELS 3 Xrotation Yrotation Zrotation
											End Site
											{
												OFFSET 0 0 0
											}
										}
									}
								}
							}
						}
					}
				}
			}
		}
	}
}
MOTION
Frames: 11
Frame Time: 0.03333333
-2.864570 92.279152 11.162243 0.000000 0.000000 0.000000 -1.096568 -40.470486 1.911780 -19.589652 17.260330 13.281543 26.269292 2.435157 -5.366092 1.587743 4.952810 -8.572803 0.000000 0.000000 0.000000 -1.665446 -39.255105 1.855179 -20.078541 10.955203 -8.215032 27.070082 3.099351 -1.344016 8.361759 -3.564461 6.909565 0.000000 0.000000 0.000000 -1.431762 -40.271342 1.953959 -0.881645 -0.090799 -0.121366 12.607887 1.436401 -9.996825 -1.118170 -1.847882 2.597616 0.000000 0.000000 0.000000 0.921924 0.221634 2.800754 -2.580962 3.175824 -0.886930 0.000000 0.000000 0.000000 2.241064 -0.152426 3.249108 -7.134981 -9.932547 -7.022456 -42.275282 -2.714169 -40.520056 -27.999406 -65.335117 -12.211518 0.000000 0.000000 0.000000 -1.014398 0.927256 2.468942 2.766570 9.669816 6.109415 12.129337 -14.170290 64.494778 19.892443 45.529921 -1.814136 0.000000 0.000000 0.000000 
-2.942264 92.314835 10.695782 0.000000 0.000000 0.000000 -1.103844 -41.188660 1.871954 -18.855372 16.596564 13.339758 25.305122 1.552705 -4.876132 1.199080 4.131438 -9.539628 0.000000 0.000000 0.000000 -1.725511 -39.810017 1.832596 -21.100700 11.289007 -7.957298 27.328540 3.188492 -1.408453 8.987642 -3.218935 6.987126 0.000000 0.000000 0.000000 -1.414601 -40.688994 1.938489 -0.909664 -0.027817 -0.138370 12.496203 1.495282 -9.540249 -0.744769 -1.650809 2.312661 0.000000 0.000000 0.000000 0.748983 0.282649 2.667176 -2.221850 3.364091 -1.133015 0.000000 0.000000 0.000000 2.324758 -0.116410 3.274201 -7.132804 -10.363102 -7.461152 -41.745071 -3.453306 -40.147504 -29.723829 -66.280647 -14.621517 0.000000 0.000000 0.000000 -0.009582 1.103632 2.274514 2.437407 9.493337 5.311815 11.051918 -13.785947 66.290524 20.391665 43.894651 -2.531407 0.000000 0.000000 0.000000 
-2.986052 92.291420 10.084476 0.000000 0.000000 0.000000 -1.080989 -42.137923 1.835842 -18.862828 16.540060 14.046154 25.137871 1.301060 -4.461339 3.003171 4.173550 -9.882737 0.000000 0.000000 0.000000 -1.648083 -40.766165 1.862072 -23.640837 11.416562 -7.626723 29.436882 3.034877 -1.468688 9.953405 -2.962574 6.848731 0.000000 0.000000 0.000000 -1.277109 -41.286772 1.938509 -0.923097 0.026270 -0.158699 12.411547 1.833840 -8.456917 -0.195124 -1.298046 1.643453 0.000000 0.000000 0.000000 0.768631 0.521732 2.177796 -1.895457 3.273260 -1.514391 0.000000 0.000000 0.000000 2.527950 0.103808 2.951270 -6.702532 -10.494713 -7.505382 -41.461724 -4.305937 -39.309163 -32.093867 -66.893602 -18.057222 0.000000 0.000000 0.000000 1.127511 1.451669 1.737690 2.230502 8.713703 4.231436 10.261364 -13.194512 70.118968 20.458570 41.543342 -3.462884 0.000000 0.000000 0.000000 
-2.845324 92.125908 9.360313 0.000000 0.000000 0.000000 -0.928324 -43.073768 1.912007 -19.987162 17.169268 15.015150 26.209514 1.676496 -4.217596 5.773712 5.068125 -9.727685 0.000000 0.000000 0.000000 -1.339890 -41.831589 1.988664 -27.528703 11.582138 -7.314827 33.297760 2.785044 -1.627627 10.605857 -2.916679 6.041350 0.000000 0.000000 0.000000 -0.953873 -42.129334 2.075777 -0.926891 0.027508 -0.176701 12.509164 2.377378 -7.077892 0.454575 -0.821569 0.596310 0.000000 0.000000 0.000000 0.984603 0.940968 1.360467 -1.658566 2.889426 -1.968331 0.000000 0.000000 0.000000 2.823071 0.512038 2.286586 -5.892163 -10.196671 -6.896598 -41.351253 -5.041795 -37.713958 -35.280837 -67.268839 -22.570905 0.000000 0.000000 0.000000 2.248349 1.899022 0.822202 2.137048 7.207523 2.865300 10.810771 -12.868478 75.301552 20.361670 39.929440 -4.664243 0.000000 0.000000 0.000000 
-2.479303 91.695099 8.568874 0.000000 0.000000 0.000000 -0.542016 -43.991818 2.165025 -22.116690 17.666194 15.655750 28.604472 2.052308 -3.885303 6.720892 6.307655 -9.401746 0.000000 0.000000 0.000000 -1.010961 -42.961483 2.156520 -32.028990 12.017413 -7.103555 37.645663 2.769895 -1.798283 11.118161 -2.742699 4.823287 0.000000 0.000000 0.000000 -0.466298 -43.282420 2.366400 -0.921139 -0.008538 -0.178761 12.956706 3.030331 -5.730387 1.100021 -0.258770 -0.749854 0.000000 0.000000 0.000000 1.321795 1.482672 0.263624 -1.553587 2.233997 -2.406371 0.000000 0.000000 0.000000 3.150516 1.054582 1.341482 -4.814331 -9.464499 -5.604884 -41.398046 -5.154087 -35.262552 -39.392351 -67.463793 -28.189297 0.000000 0.000000 0.000000 3.289266 2.371623 -0.432983 2.068652 5.041077 1.185261 13.354939 -12.687820 80.785025 20.431565 40.461692 -6.258904 0.000000 0.000000 0.000000 
-1.931403 90.979630 7.997875 0.000000 0.000000 0.000000 0.069341 -45.235031 2.629543 -24.499393 17.522159 15.355469 31.676963 1.843953 -3.218050 4.108189 7.020092 -9.674621 0.000000 0.000000 0.000000 -0.676249 -44.321289 2.377629 -36.451063 12.735110 -6.997206 41.079483 3.386019 -1.909094 11.532295 -2.018805 3.816474 0.000000 0.000000 0.000000 0.114519 -45.003051 2.785755 -0.899235 -0.038532 -0.140177 14.028497 3.614295 -4.606050 1.678121 0.306481 -2.209766 0.000000 0.000000 0.000000 1.687713 2.030775 -0.956441 -1.590458 1.342869 -2.758328 0.000000 0.000000 0.000000 3.434914 1.619090 0.222101 -3.641848 -8.460468 -3.788034 -42.183211 -4.412419 -32.145821 -45.057122 -67.970737 -35.462216 0.000000 0.000000 0.000000 4.091694 2.774182 -1.851445 1.932926 2.572036 -0.884982 17.681019 -11.890360 85.367270 20.929045 43.127324 -8.179647 0.000000 0.000000 0.000000 
-1.275497 90.062958 7.653778 0.000000 0.000000 0.000000 0.889538 -47.230236 3.253041 -26.658143 16.718117 14.124889 34.765284 0.712057 -2.162884 -2.063752 6.679553 -11.143633 0.000000 0.000000 0.000000 -0.451289 -46.221693 2.549401 -40.419622 13.828622 -6.772416 42.752493 4.994747 -1.849296 12.657056 -0.114883 3.717300 0.000000 0.000000 0.000000 0.682667 -47.431876 3.215171 -0.887251 -0.067565 -0.089840 15.774192 3.971822 -3.720795 2.119645 0.821824 -3.510489 0.000000 0.000000 0.000000 1.993839 2.509256 -2.060107 -1.718140 0.282576 -2.984310 0.000000 0.000000 0.000000 3.649353 2.079314 -0.851497 -2.570881 -7.571561 -1.819549 -44.054529 -2.936764 -28.828753 -53.043447 -68.956142 -45.062375 0.000000 0.000000 0.000000 4.688594 3.070145 -3.153778 1.712100 0.484906 -3.268205 22.689380 -9.750909 88.096374 21.899361 46.741279 -10.364547 0.000000 0.000000 0.000000 
-0.488377 88.977463 7.434898 0.000000 0.000000 0.000000 1.644771 -50.337671 3.770634 -28.957437 15.124735 12.459237 38.502681 -1.122809 -0.660169 -9.585267 5.822099 -13.331045 0.000000 0.000000 0.000000 -0.258015 -49.303983 2.582784 -43.335068 14.750029 -6.258515 41.288026 7.574169 -1.270749 15.647618 3.250581 4.856013 0.000000 0.000000 0.000000 1.307440 -50.756673 3.565330 -0.887451 -0.073592 -0.041080 18.075269 4.004834 -2.843973 2.351595 1.194819 -4.351002 0.000000 0.000000 0.000000 2.193064 2.821934 -2.783831 -1.867407 -0.876113 -3.048564 0.000000 0.000000 0.000000 3.729173 2.367239 -1.601446 -1.660301 -6.988647 -0.047517 -47.191184 -1.070735 -25.856397 -64.551489 -70.345341 -58.084735 0.000000 0.000000 0.000000 4.983241 3.218136 -3.999349 1.439813 -0.376490 -5.522268 26.948851 -5.934546 88.015027 22.960215 49.806388 -12.369762 0.000000 0.000000 0.000000 
0.419743 87.846359 7.434769 0.000000 0.000000 0.000000 2.152617 -54.908516 3.962327 -31.709946 13.088799 10.935759 43.618052 -2.870858 1.267075 -15.374008 5.302573 -14.996783 0.000000 0.000000 0.000000 0.154552 -53.916895 2.492563 -45.121650 15.305909 -5.392433 36.844868 10.453786 -0.020632 19.966258 7.385170 6.317236 0.000000 0.000000 0.000000 1.963489 -55.218384 3.760303 -0.899672 -0.049149 -0.014240 20.685645 3.633121 -1.794620 2.411747 1.403052 -4.517912 0.000000 0.000000 0.000000 2.312841 2.936271 -2.919813 -1.924261 -2.083672 -2.974158 0.000000 0.000000 0.000000 3.670199 2.472764 -1.801311 -0.926150 -6.810258 1.320804 -51.416762 0.906839 -23.614611 -80.292719 -71.525427 -75.177379 0.000000 0.000000 0.000000 4.867072 3.234721 -4.159373 1.226678 0.576168 -7.073420 30.015741 -0.934837 84.560078 23.544862 51.500149 -13.568517 0.000000 0.000000 0.000000 
1.472422 86.754662 7.536201 0.000000 0.000000 0.000000 2.403351 -60.862142 3.687991 -34.564381 10.893709 9.897263 49.836339 -3.935738 3.626245 -18.906638 5.332342 -15.408103 0.000000 0.000000 0.000000 0.633670 -60.027684 2.204067 -45.954155 15.550314 -4.174233 30.491720 12.740045 1.739952 25.143303 11.145638 6.910249 0.000000 0.000000 0.000000 2.672383 -60.776171 3.769200 -0.922737 0.001514 -0.013334 23.164380 2.866730 -0.534551 2.325276 1.447213 -3.984589 0.000000 0.000000 0.000000 2.417962 2.894502 -2.395375 -1.825202 -3.305773 -2.804879 0.000000 0.000000 0.000000 3.511577 2.436299 -1.380274 -0.316188 -7.017420 2.107984 -56.101617 2.707966 -22.309860 -96.496230 -71.702595 -92.580284 0.000000 0.000000 0.000000 4.439853 3.149107 -3.594650 1.133547 3.383740 -7.596612 31.948497 3.836107 77.862429 23.200353 51.767360 -13.480681 0.000000 0.000000 0.000000 
2.750554 85.845909 7.733944 0.000000 0.000000 0.000000 2.292153 -67.817283 2.890728 -36.709767 8.847857 9.458957 55.968858 -4.258793 6.308353 -21.295224 5.885659 -14.663446 0.000000 0.000000 0.000000 1.212531 -67.322190 1.817428 -46.292946 15.738156 -2.673567 24.440305 13.727767 3.185594 29.946678 13.055951 5.754319 0.000000 0.000000 0.000000 3.591255 -67.322163 3.782112 -0.936351 0.073715 -0.016180 25.173437 1.740356 0.850544 2.210577 1.331119 -2.854774 0.000000 0.000000 0.000000 2.599060 2.751364 -1.287989 -1.572958 -4.512858 -2.597724 0.000000 0.000000 0.000000 3.286255 2.307918 -0.425774 0.213745 -7.493020 2.406496 -60.461825 3.913533 -21.886434 -108.049092 -71.386029 -105.194271 0.000000 0.000000 0.000000 3.727279 2.988084 -2.435310 1.090101 7.533734 -7.130755 32.809254 7.466302 68.745506 21.950018 51.004653 -12.156220 0.000000 0.000000 0.000000 
